Coordinates
version=1
nRows=8
nColumns=63
inDegrees=yes

Units are S.I. units (second, meters, Newtons, ...)
If the header above contains a line with 'inDegrees', this indicates whether rotational values are in degrees (yes) or radians (no).

endheader
time	pelvis_tilt	pelvis_list	pelvis_rotation	pelvis_tx	pelvis_ty	pelvis_tz	hip_flexion_r	hip_adduction_r	hip_rotation_r	knee_angle_r	knee_angle_r_beta	ankle_angle_r	subtalar_angle_r	mtp_angle_r	hip_flexion_l	hip_adduction_l	hip_rotation_l	knee_angle_l	knee_angle_l_beta	ankle_angle_l	subtalar_angle_l	mtp_angle_l	L5_S1_Flex_Ext	L5_S1_Lat_Bending	L5_S1_axial_rotation	L4_L5_Flex_Ext	L4_L5_Lat_Bending	L4_L5_axial_rotation	L3_L4_Flex_Ext	L3_L4_Lat_Bending	L3_L4_axial_rotation	L2_L3_Flex_Ext	L2_L3_Lat_Bending	L2_L3_axial_rotation	L1_L2_Flex_Ext	L1_L2_Lat_Bending	L1_L2_axial_rotation	L1_T12_Flex_Ext	L1_T12_Lat_Bending	L1_T12_axial_rotation	Abs_r3	Abs_r2	Abs_r1	Abs_t1	Abs_t2	neck_flexion	neck_bending	neck_rotation	arm_flex_r	arm_add_r	arm_rot_r	elbow_flex_r	pro_sup_r	wrist_flex_r	wrist_dev_r	arm_flex_l	arm_add_l	arm_rot_l	elbow_flex_l	pro_sup_l	wrist_flex_l	wrist_dev_l
3.266667	-5.390471	-4.595073	92.368863	0.198763	0.962656	0.363534	-3.295172	-1.531599	3.794828	6.999712	0.122168	30.191246	-4.255726	0.000000	0.844535	1.683111	0.958865	13.895963	0.242530	25.851473	-1.776752	0.000000	0.084895	-1.423310	1.026870	0.157658	-1.893002	1.091050	0.139474	-3.460636	1.091050	0.097026	-3.460636	0.898512	0.078833	-2.902414	0.834332	0.048509	-2.204707	0.770153	0.606396	-16.100768	5.711146	0.000000	0.000000	27.895860	19.513784	-10.802846	39.428370	-18.799126	-48.562160	103.368444	88.536422	-28.355968	5.487279	8.069081	-19.726190	131.921664	9.472382	8.668277	-6.677815	-2.296689
3.283333	-5.355438	-4.583523	92.747703	0.198391	0.962601	0.363063	-3.474711	-1.443783	3.505092	6.790871	0.118523	30.147904	-4.450786	0.000000	0.838881	1.617701	1.306611	13.879087	0.242236	26.004213	-1.508865	0.000000	0.069939	-1.415813	0.909305	0.129883	-1.883031	0.966136	0.114902	-3.442408	0.966136	0.079933	-3.442408	0.795641	0.064945	-2.887126	0.738810	0.039963	-2.193095	0.681978	0.499564	-16.015961	5.057279	0.000000	0.000000	27.905350	17.848136	-13.964434	39.246945	-18.853850	-47.751206	104.658011	88.245596	-28.033094	5.460017	7.827367	-19.748470	131.086399	9.464458	8.971692	-6.798703	-2.277118
3.300000	-5.304720	-4.506535	93.143324	0.198020	0.962583	0.362701	-3.722505	-1.336341	3.149737	6.590263	0.115022	30.104266	-4.568152	0.000000	0.787154	1.525812	1.627040	13.888127	0.242394	26.246737	-1.174795	0.000000	0.050162	-1.404889	0.764919	0.093156	-1.868502	0.812727	0.082411	-3.415847	0.812727	0.057330	-3.415847	0.669304	0.046581	-2.864849	0.621497	0.028663	-2.176173	0.573690	0.358303	-15.892384	4.254252	0.000000	0.000000	27.567841	16.290808	-16.779132	38.852265	-19.188534	-45.862675	106.433459	87.961619	-26.964625	5.283117	7.593015	-19.783716	130.414584	9.558339	9.135484	-6.942926	-2.243100
3.316667	-5.255426	-4.381315	93.535711	0.197674	0.962583	0.362465	-4.011790	-1.230499	2.760906	6.414685	0.111957	30.057919	-4.625069	0.000000	0.700734	1.426216	1.890999	13.913714	0.242840	26.556687	-0.768543	0.000000	0.027357	-1.392837	0.597497	0.050804	-1.852473	0.634840	0.044945	-3.386543	0.634840	0.031266	-3.386543	0.522810	0.025404	-2.840273	0.485466	0.015632	-2.157504	0.448123	0.195407	-15.756048	3.323099	0.000000	0.000000	26.957758	14.884506	-19.174149	38.319257	-19.759534	-43.005206	108.529336	87.723610	-25.255265	5.025510	7.348574	-19.841623	129.841382	9.727179	9.105471	-7.070748	-2.182475
3.333333	-5.207439	-4.221610	93.907008	0.197357	0.962594	0.362337	-4.326923	-1.129631	2.370582	6.265338	0.109351	30.004821	-4.640415	0.000000	0.586953	1.319967	2.074475	13.950408	0.243481	26.906910	-0.300598	0.000000	0.003052	-1.380344	0.420469	0.005668	-1.835857	0.446748	0.005014	-3.356167	0.446748	0.003488	-3.356167	0.367910	0.002834	-2.814797	0.341631	0.001744	-2.138152	0.315351	0.021799	-15.614723	2.338520	0.000000	0.000000	26.213663	13.612064	-21.264425	37.672355	-20.533353	-39.425990	110.767797	87.544351	-23.008670	4.702035	7.105018	-19.917819	129.318027	9.950033	8.920108	-7.168139	-2.093116
3.350000	-5.163170	-4.047418	94.229089	0.197095	0.962601	0.362290	-4.641650	-1.039377	2.009259	6.146877	0.107283	29.951794	-4.628826	0.000000	0.459714	1.212562	2.154276	13.994873	0.244257	27.266343	0.207488	0.000000	-0.020855	-1.368280	0.249776	-0.038730	-1.819812	0.265387	-0.034263	-3.326835	0.265387	-0.023835	-3.326835	0.218554	-0.019366	-2.790196	0.202943	-0.011917	-2.119465	0.187332	-0.148965	-15.478254	1.389178	0.000000	0.000000	25.480419	12.465212	-23.144525	36.942481	-21.458559	-35.423593	112.973018	87.429634	-20.368602	4.337235	6.883786	-20.003938	128.845107	10.205837	8.637048	-7.225342	-1.967453
3.366667	-5.123768	-3.881183	94.460866	0.196931	0.962593	0.362300	-4.928148	-0.960215	1.810107	6.056659	0.105709	29.874189	-4.721745	0.000000	0.332731	1.103671	2.070622	14.037293	0.244997	27.615950	0.793895	0.000000	-0.042249	-1.356943	0.100378	-0.078460	-1.804735	0.106651	-0.069410	-3.299272	0.106651	-0.048286	-3.299272	0.087830	-0.039232	-2.767079	0.081557	-0.024141	-2.101905	0.075283	-0.301778	-15.350015	0.558271	0.000000	0.000000	24.853817	11.477363	-24.776660	36.185377	-22.467326	-31.285033	114.991266	87.358557	-17.525589	4.007435	6.680987	-20.105785	128.107065	10.468679	8.611176	-7.252053	-1.796481
3.383333	-5.098848	-3.740877	94.603808	0.196843	0.962567	0.362333	-5.161640	-0.912318	1.610771	6.006196	0.104828	29.823961	-4.702860	0.000000	0.217085	1.021067	1.954139	14.066491	0.245507	27.895826	1.277959	0.000000	-0.060425	-1.347255	-0.018677	-0.112215	-1.791849	-0.019845	-0.099272	-3.275715	-0.019845	-0.069059	-3.275715	-0.016343	-0.056110	-2.747322	-0.015175	-0.034527	-2.086898	-0.014008	-0.431608	-15.240415	-0.103878	0.000000	0.000000	24.362140	10.659648	-26.107243	35.451028	-23.489154	-27.311494	116.706295	87.306304	-14.684509	3.750339	6.563628	-20.182551	127.792222	10.721952	8.473130	-7.242644	-1.621410
